<?xml version="1.0" standalone="no"?><!DOCTYPE svg PUBLIC "-//W3C//DTD SVG 1.1//EN" "http://www.w3.org/Graphics/SVG/1.1/DTD/svg11.dtd"><svg class="icon" width="200px" height="200.00px" viewBox="0 0 1024 1024" version="1.1" xmlns="http://www.w3.org/2000/svg"><path fill="#7A7E83" d="M256 45.562c-22.202 21.882-39.644 55.2-52.152 82.406 12.088 40.126 22.166 81.738 55.078 109.852 37.724-28.03 54.1-67.504 70.374-112.702C309.262 102.31 288.824 68.736 256 45.56z m512 0c-32.824 23.174-53.262 56.748-73.3 79.556 16.274 45.198 32.65 84.672 70.374 112.702 32.912-28.114 42.99-69.726 55.08-109.852C807.642 100.762 790.2 67.444 768 45.562zM444.46 92.208c-23.092 5.498-49.896 14.458-74.08 25.36-17.244 57.8-43.848 110.726-91.93 149.468l33.1 354.214-39.866-16.876-29.22-335.574c-32.326-32.012-56.002-86.046-76.78-142.57-7.09-4.608-14.166-8.3-21.242-10.848 12.474 165.852 50.682 373.464 94.012 549.184 5.088-2.318 11.492-4.8 17.448-6.918 58.928 14.636 113.99 58.714 163.696 106.134C384 544 512 320 444.46 92.208z m135.08 0C512 320 640 544 604.4 763.78c49.706-47.42 104.768-91.5 163.696-106.134 5.956 2.12 12.36 4.6 17.448 6.92 43.33-175.72 81.54-383.334 94.012-549.186-7.076 2.548-14.152 6.24-21.24 10.848-20.78 56.524-44.456 110.56-76.782 142.57l-29.22 335.574-39.866 16.876 33.1-354.214c-48.08-38.74-74.686-91.668-91.928-149.47-24.186-10.9-50.99-19.86-74.082-25.36zM258.008 695.66c-26.62 11.344-55.83 36.71-66.028 69.332 47.45 9.358 105.616 36.814 151.048 80.778l7.894 53.734 66.934-24.148-2.66-58.164c-39.5-57.402-102.146-105.84-157.188-121.532z m507.984 0c-55.04 15.692-117.686 64.13-157.188 121.532l-2.66 58.164 66.934 24.148 7.894-53.734c45.432-43.964 103.6-71.42 151.048-80.778-10.198-32.622-39.408-57.988-66.028-69.332zM181.38 799.406l-104.514 78.544c-20.624 30.502-25.846 65.218-17.314 94.316 105.118 18.586 176.504-6.574 258.086-51.676l-8.55-58.168c-29.406-30.27-67.33-52.708-127.708-63.016z m661.244 0c-60.378 10.308-98.302 32.746-127.708 63.016l-8.55 58.168c81.582 45.1 152.968 70.262 258.086 51.676 8.532-29.1 3.31-63.814-17.314-94.316l-104.514-78.544z" /></svg>