<?xml version="1.0" standalone="no"?><!DOCTYPE svg PUBLIC "-//W3C//DTD SVG 1.1//EN" "http://www.w3.org/Graphics/SVG/1.1/DTD/svg11.dtd"><svg class="icon" width="200px" height="200.00px" viewBox="0 0 1024 1024" version="1.1" xmlns="http://www.w3.org/2000/svg"><path fill="#ffffff" d="M331.294118 15.058824a60.235294 60.235294 0 0 1 1.867294 120.44047L331.294118 135.529412H135.529412v752.941176h752.941176v-188.235294a60.235294 60.235294 0 0 1 120.440471-1.867294l0.030117 1.867294v188.235294a120.470588 120.470588 0 0 1-118.091294 120.470588H135.529412a120.470588 120.470588 0 0 1-120.470588-118.091294V135.529412a120.470588 120.470588 0 0 1 118.091294-120.470588H331.294118z m617.411764 0h1.144471l1.807059 0.060235L948.705882 15.058824c2.168471 0 4.336941 0.120471 6.445177 0.331294l0.903529 0.12047c1.355294 0.150588 2.710588 0.361412 4.065883 0.602353l0.572235 0.150588a56.470588 56.470588 0 0 1 8.613647 2.409412l0.692706 0.271059a59.843765 59.843765 0 0 1 23.371294 15.932235l-2.319059-2.409411a61.018353 61.018353 0 0 1 14.938353 24.154352 68.818824 68.818824 0 0 1 2.228706 9.216 75.986824 75.986824 0 0 1 0.692706 7.589648l0.030117 1.867294v240.941176a60.235294 60.235294 0 0 1-120.44047 1.867294L888.470588 221.967059 374.151529 742.580706a60.235294 60.235294 0 0 1-87.16047-83.124706l1.445647-1.566118L804.502588 135.529412H707.764706a60.235294 60.235294 0 0 1-60.205177-58.368L647.529412 75.294118A60.235294 60.235294 0 0 1 705.897412 15.088941L948.705882 15.058824z"  /></svg>