<?xml version="1.0" standalone="no"?><!DOCTYPE svg PUBLIC "-//W3C//DTD SVG 1.1//EN" "http://www.w3.org/Graphics/SVG/1.1/DTD/svg11.dtd"><svg class="icon" width="200px" height="200.00px" viewBox="0 0 1024 1024" version="1.1" xmlns="http://www.w3.org/2000/svg"><path fill="#d32121" d="M234.666667 723.2c-96-8.533333-192-49.066667-192-217.6C42.666667 249.6 253.866667 42.666667 512 42.666667s469.333333 206.933333 469.333333 462.933333c0 168.533333-96 209.066667-192 217.6v121.6c0 74.666667-61.866667 136.533333-136.533333 136.533333H371.2c-74.666667 0-136.533333-61.866667-136.533333-136.533333v-121.6zM512 128C300.8 128 128 298.666667 128 505.6 128 618.666667 174.933333 640 277.333333 640c23.466667 0 42.666667 19.2 42.666667 42.666667v162.133333c0 27.733333 23.466667 51.2 51.2 51.2h281.6c27.733333 0 51.2-23.466667 51.2-51.2V682.666667c0-23.466667 19.2-42.666667 42.666667-42.666667 104.533333 0 149.333333-21.333333 149.333333-134.4C896 298.666667 723.2 128 512 128z"  /><path fill="#d32121" d="M341.333333 554.666667c46.933333 0 85.333333-38.4 85.333334-85.333334s-38.4-85.333333-85.333334-85.333333-85.333333 38.4-85.333333 85.333333 38.4 85.333333 85.333333 85.333334M682.666667 554.666667c46.933333 0 85.333333-38.4 85.333333-85.333334s-38.4-85.333333-85.333333-85.333333-85.333333 38.4-85.333334 85.333333 38.4 85.333333 85.333334 85.333334M480 697.6h64c14.933333 0 23.466667-14.933333 14.933333-27.733333l-32-55.466667c-6.4-12.8-23.466667-12.8-32 0l-32 55.466667c-6.4 12.8 2.133333 27.733333 17.066667 27.733333"  /></svg>