<?xml version="1.0" standalone="no"?><!DOCTYPE svg PUBLIC "-//W3C//DTD SVG 1.1//EN" "http://www.w3.org/Graphics/SVG/1.1/DTD/svg11.dtd"><svg class="icon" width="200px" height="200.00px" viewBox="0 0 1024 1024" version="1.1" xmlns="http://www.w3.org/2000/svg"><path fill="#ffffff" d="M786.752 512.32L521.344 246.592a32 32 0 0 1 45.312-45.184l288 288.32a32 32 0 0 1 0 45.248l-288 287.68a32 32 0 0 1-45.248-45.312l265.344-265.024z"  /><path fill="#ffffff" d="M530.752 512.32L265.344 246.592a32 32 0 0 1 45.312-45.184l288 288.32a32 32 0 0 1 0 45.248l-288 287.68a32 32 0 0 1-45.248-45.312l265.344-265.024z"  /></svg>