<svg xmlns="http://www.w3.org/2000/svg" width="130" height="130"><defs><path id="a" d="M65.3 102.4 41.5 93 29.7 67l9.8-25.6L65 30.6l26.2 9.8L102 65.6 91.3 91.4Z"/><path id="b" d="M65.3 94.6a29.2 29.2 0 1 1 29.2-29.2 29.2 29.2 0 0 1-29.2 29.2Zm25.4-29.2a25.4 25.4 0 0 0-.8-6.6l-6 6L90 71a25.4 25.4 0 0 0 .6-5.6Zm-1.6 8.9-7.3-7.4-14.4 14.4 7.5 7.5-.1.2A25.4 25.4 0 0 0 89 74.3Zm-9.5-9.5L65.3 50.4 50.9 64.8l14.4 14.4ZM71.8 90l-6.5-6.6-6.5 6.5a24.7 24.7 0 0 0 13 0Zm-16.2-1.1 7.5-7.6-14.3-14.4-7.3 7.3a25.5 25.5 0 0 0 14 14.7ZM39.9 65.4a25.4 25.4 0 0 0 .6 5.5l6.1-6.1-5.8-5.8a25.4 25.4 0 0 0-.9 6.4Zm2-9.6 6.9 6.9L63 48.3l-6.6-6.7a25.5 25.5 0 0 0-14.7 14.2ZM65.2 40a25.4 25.4 0 0 0-5.6.6l5.6 5.6 5.5-5.6a25.4 25.4 0 0 0-5.5-.6Zm8.8 1.6-6.7 6.7 14.4 14.4 7-7A25.5 25.5 0 0 0 74 41.6Z"/></defs><path d="m8.6 45.2 1 42.6H22L21.8 45Zm113.2 0-1 42.6h-12.4l.2-42.8ZM45.8 20V10s6.6-1.6 18.4-1.6a92.6 92.6 0 0 1 19.4 1.8V20H45.8Z" style="fill:#d5d3cf"/><path d="m114.5 49.5-1.8 36-47.2 40-46.5-40-1.8-36s7-34.2 48.7-34.2 48.6 34.2 48.6 34.2Z" style="fill:#b3afa8"/><path d="M117.3 110.6a4.7 4.7 0 0 0-.7-3.3c-1-1.3-8.5-5.5-9.2-10.3s5.7-3.7 5.2-12.2c0 0 0-4.5-4.2-4.8s-7.5-.5-9 3.5a35.3 35.3 0 0 1-66.9 0c-1.4-4-4.7-3.7-9-3.5s-4.2 4.8-4.2 4.8c-.5 8.5 6 7.5 5.2 12.2s-10 9-11 10.3a4.7 4.7 0 0 0-.8 3.3c6.6 46 97.6 45.8 104.6 0Z" style="fill:#cbc9c5"/><path d="M105.7 93.7a5.8 5.8 0 0 0-.8 2.2 9.7 9.7 0 0 0-.3 6.4c-.3 18-21.4 25.2-38 25.5-17.4.3-39.4-7.5-39.8-25.5a14.2 14.2 0 0 0 0-7.4 5 5 0 0 0-.7-1.2c-1.4-2-5.4-6.5-.8-8.4 3-1.2 5.8.2 7 3.5A31.8 31.8 0 0 0 39 98c8.2 7.7 15.9 12 26.7 12a38 38 0 0 0 27.2-11.3 39.9 39.9 0 0 0 6.8-10.3c1.3-3.3 4-4 6.9-2.7 4.6 1.9.5 6-.9 8Z" style="fill:#a5a39f"/><use y="4" href="#a" style="fill:#817f7e"/><use href="#a" style="fill:#d9d8d2"/><path d="M65.9 39.3a27.3 27.3 0 1 1-27.3 27.2A27.3 27.3 0 0 1 66 39.2Z" style="fill:#707676"/><use y="2" href="#b" style="fill:#595857"/><use href="#b" style="fill:#a5a39f"/></svg>