<?xml version="1.0" standalone="no"?><!DOCTYPE svg PUBLIC "-//W3C//DTD SVG 1.1//EN" "http://www.w3.org/Graphics/SVG/1.1/DTD/svg11.dtd"><svg class="icon" width="200px" height="200.00px" viewBox="0 0 1024 1024" version="1.1" xmlns="http://www.w3.org/2000/svg"><path fill="#ffffff" d="M633.673143 168.009143c14.372571 0 25.6-11.190857 25.6-25.6 0-11.190857-11.227429-22.418286-22.418286-22.418286-14.409143 0-25.6 11.227429-25.6 25.6 1.609143 11.227429 8.009143 22.418286 22.418286 22.418286z m-179.2 366.372571c-8.045714 17.627429 3.181714 36.827429 25.6 40.009143 11.190857 0 17.554286-3.181714 22.381714-7.972571 28.818286-28.818286 59.209143-59.245714 84.809143-88.027429l139.190857-139.190857c8.009143-8.009143 11.190857-11.190857 11.190857-22.381714 0-14.409143-7.972571-25.6-22.381714-28.818286-14.409143-3.181714-22.418286 0-28.818286 8.009143-105.581714 105.581714-116.772571 121.6-224 227.181714-4.754286 4.827429-7.972571 8.009143-7.972571 11.227429z m105.581714-193.572571c11.190857 0 17.590857-3.218286 22.418286-11.190857 14.372571-33.645714 28.781714-65.609143 39.972571-99.218286 3.218286-11.190857 0-22.381714-11.190857-28.781714-11.190857-3.218286-25.6 0-28.781714 11.190857-14.409143 33.609143-28.818286 65.609143-40.009143 99.181714-8.009143 14.409143 3.181714 28.818286 17.590857 28.818286z m235.190857 65.572571c-33.572571 11.227429-62.390857 25.6-91.172571 40.009143a23.369143 23.369143 0 0 0-14.409143 22.418286c0 14.372571 14.409143 25.6 28.781714 17.590857 33.645714-11.190857 62.427429-25.6 96-40.009143 14.409143-7.972571 17.627429-17.590857 11.227429-28.781714-4.827429-11.190857-16.018286-19.2-30.427429-11.190857z m-51.2-175.981714c8.045714 3.218286 17.627429 3.218286 25.6 8.009143 11.227429 3.181714 14.409143 8.009143 17.627429 17.590857 3.181714 11.190857 3.181714 17.590857 7.972571 28.818286 3.218286 7.972571 8.045714 14.372571 17.627429 14.372571 7.972571 0 14.372571-7.972571 17.554286-14.372571 3.218286-11.227429 8.045714-17.627429 8.045714-28.818286 3.181714-11.190857 7.972571-14.409143 17.554286-17.590857a181.028571 181.028571 0 0 0 28.818285-11.190857c8.045714-3.218286 11.227429-11.227429 14.409143-17.627429 0-11.190857-8.009143-14.372571-14.409143-17.590857-7.972571 0-17.554286-3.181714-25.6-8.009143-11.190857-3.181714-17.554286-7.972571-17.554285-17.590857-3.218286-8.009143-3.218286-17.590857-8.045715-25.6-1.572571-12.8-4.754286-15.981714-15.981714-15.981714-11.190857 0-14.409143 7.972571-17.590857 14.372571-3.218286 8.009143-3.218286 14.409143-8.045714 25.6-7.972571 11.227429-14.372571 17.627429-25.6 17.627429-7.972571 3.181714-14.372571 3.181714-22.381715 7.972571-11.190857 3.218286-17.554286 8.009143-17.554285 17.627429-1.645714 14.372571 6.363429 19.2 17.554285 22.381714zM425.691429 182.418286c-14.409143 7.972571-22.381714 22.381714-14.409143 36.790857 40.009143 102.4 22.418286 164.790857-36.790857 244.809143-8.009143 14.372571-8.009143 28.781714 8.009142 39.972571 3.181714 3.218286 11.190857 3.218286 14.409143 3.218286 7.972571 0 17.554286-3.218286 22.381715-11.190857 65.609143-91.209143 96-176.018286 43.190857-300.8-4.754286-12.8-22.381714-19.2-36.790857-12.8z m457.618285 187.172571c-14.409143 0-25.6 11.190857-25.6 22.418286 0 14.409143 11.190857 22.381714 22.381715 22.381714 14.409143 0 25.6-11.190857 22.418285-25.6 3.181714-8.009143-8.045714-19.2-19.2-19.2z m-96 369.590857c-11.227429 0-25.6 11.227429-25.6 22.418286s11.190857 22.418286 22.381715 25.6c11.190857 0 25.6-11.190857 25.6-22.381714 0-14.409143-11.190857-25.6-22.381715-25.6z m44.8-171.154285c-124.818286-51.2-209.627429-22.418286-300.8 43.154285-14.409143 8.045714-14.409143 25.6-8.045714 40.009143 8.045714 8.009143 14.445714 11.190857 22.418286 11.190857 8.045714 0 11.227429 0 14.409143-3.181714 80.018286-59.209143 142.409143-79.981714 244.809142-36.790857 14.409143 8.009143 33.609143 0 36.790858-14.409143 12.8-17.590857 4.790857-36.790857-9.581715-40.009143z m-124.818285 139.154285c-8.009143-3.181714-17.590857-7.972571-25.6-11.190857-14.409143-3.181714-25.6-11.190857-40.009143-14.372571-14.372571-3.218286-25.6 3.181714-28.781715 14.372571-3.218286 14.409143 0 25.6 14.409143 28.818286l65.572572 22.381714c14.409143 3.218286 28.818286-8.009143 28.818285-17.590857 0-11.190857-3.218286-19.2-14.409142-22.418286zM275.273143 457.581714c-8.045714-7.972571-22.418286-11.190857-33.645714-11.190857a49.627429 49.627429 0 0 0-28.781715 22.418286L3.291429 966.4c-6.436571 16.018286-3.218286 30.390857 7.972571 41.581714 11.190857 11.227429 25.6 14.409143 40.009143 8.045715l502.381714-209.627429c11.190857-3.218286 17.590857-14.409143 22.418286-28.818286 3.181714-11.190857 0-25.6-11.227429-33.572571l-289.572571-286.427429zM184.064 883.2l-73.618286 28.818286 84.845715-201.618286-11.227429 172.8z m123.209143-55.990857l-65.609143 28.781714 22.381714-295.972571v-8.045715L326.473143 614.4l-19.2 212.809143z m59.172571-25.6l11.227429-136.009143 96 96-107.227429 40.009143z m656.018286-185.6c-3.218286-8.009143-11.190857-11.190857-17.590857-11.190857h-28.818286c-11.190857 0-17.590857-3.218286-25.6-11.227429-3.181714-8.009143-11.190857-14.409143-14.409143-22.381714-7.972571-8.009143-14.372571-14.409143-22.381714-11.190857-11.190857 3.181714-11.190857 11.190857-11.190857 22.381714v25.6c0 11.190857-3.218286 17.590857-11.227429 25.6-7.972571 3.218286-14.372571 11.190857-22.381714 14.409143-8.009143 7.972571-14.409143 14.372571-11.190857 25.6 3.181714 11.190857 11.190857 11.190857 22.381714 11.190857h25.6c11.190857 0 17.590857 3.181714 25.6 11.190857 8.009143 8.009143 11.190857 14.409143 17.590857 25.6 3.218286 8.009143 11.227429 8.009143 22.418286 8.009143 8.009143-3.181714 14.409143-8.009143 14.409143-17.590857v-33.609143c0-11.190857 3.181714-14.409143 11.190857-22.418286 8.009143-7.972571 17.590857-11.190857 25.6-17.554285 0-8.045714 3.181714-16.018286 0-22.418286zM267.264 329.618286c8.009143 22.381714 14.409143 39.972571 22.381714 62.390857 8.045714 14.409143 17.627429 22.381714 28.818286 14.409143 11.190857-3.218286 17.590857-17.627429 14.409143-33.645715l-22.418286-62.354285c-3.181714-11.227429-11.190857-14.409143-22.381714-14.409143-12.8 4.790857-24.027429 19.2-20.845714 33.609143z m62.390857-241.627429c8.009143 8.009143 11.190857 14.409143 11.190857 25.6 0 11.227429-3.181714 17.627429-3.181714 28.818286 0 11.190857 0 17.590857 11.190857 22.381714 8.009143 3.218286 14.409143 0 22.418286-7.972571l22.381714-22.418286c6.4-6.4 12.8-9.581714 20.809143-6.4 11.190857 0 22.381714 3.218286 33.609143 3.218286 7.972571 0 14.372571-3.218286 17.554286-11.227429 3.218286-7.972571 3.218286-14.372571-3.181715-22.381714-7.972571-8.009143-14.372571-11.190857-22.381714-17.590857-8.009143-8.045714-14.409143-14.409143-11.190857-25.6 0-8.045714 3.181714-17.627429 3.181714-25.6 0-11.227429 0-17.627429-11.190857-22.418286-11.190857-3.181714-17.590857 0-22.418286 8.009143-7.972571 8.009143-11.190857 14.409143-17.554285 17.590857-8.045714 11.190857-14.445714 14.409143-28.818286 11.190857C340.845714 35.218286 329.654857 35.218286 323.254857 35.218286c-11.190857 0-17.590857 3.181714-22.381714 11.190857-3.218286 8.009143 0 14.409143 7.972571 22.381714 6.4 8.009143 14.409143 11.227429 20.845715 19.2zM256.073143 264.045714c11.190857 0 22.381714-11.190857 22.381714-22.418285 0-11.190857-11.190857-25.6-22.381714-25.6-11.227429 0-25.6 11.227429-25.6 22.418285 4.754286 14.409143 11.190857 25.6 25.6 25.6z"  /></svg>